<svg xmlns="http://www.w3.org/2000/svg" xmlns:xlink="http://www.w3.org/1999/xlink" width="500" zoomAndPan="magnify" viewBox="0 0 375 374.999991" height="500" preserveAspectRatio="xMidYMid meet" version="1.0"><defs><g/><clipPath id="d3871157d8"><path d="M 84.167969 134.316406 L 211 134.316406 L 211 177.066406 L 84.167969 177.066406 Z M 84.167969 134.316406 " clip-rule="nonzero"/></clipPath></defs><rect x="-37.5" width="450" fill="#ffffff" y="-37.499999" height="449.999989" fill-opacity="1"/><rect x="-37.5" width="450" fill="#ffffff" y="-37.499999" height="449.999989" fill-opacity="1"/><g clip-path="url(#d3871157d8)"><path fill="#13488e" d="M 86.453125 176.988281 L 147.632812 137.410156 C 147.632812 137.410156 208.8125 176.988281 208.8125 176.988281 C 209.449219 177.398438 210.292969 177.21875 210.703125 176.585938 C 211.113281 175.953125 210.933594 175.105469 210.296875 174.695312 C 210.296875 174.695312 148.375 134.632812 148.375 134.632812 C 147.921875 134.34375 147.34375 134.34375 146.890625 134.632812 C 146.890625 134.632812 84.96875 174.695312 84.96875 174.695312 C 84.335938 175.105469 84.152344 175.953125 84.5625 176.585938 C 84.972656 177.21875 85.820312 177.398438 86.453125 176.988281 Z M 86.453125 176.988281 " fill-opacity="1" fill-rule="evenodd"/></g><path fill="#13488e" d="M 162.757812 145.503906 L 174.011719 138.222656 C 174.011719 138.222656 231.855469 176.167969 231.855469 176.167969 C 232.488281 176.582031 233.335938 176.40625 233.75 175.773438 C 234.160156 175.144531 233.984375 174.296875 233.355469 173.882812 C 233.355469 173.882812 174.769531 135.449219 174.769531 135.449219 C 174.316406 135.152344 173.730469 135.148438 173.277344 135.441406 C 173.277344 135.441406 168.292969 138.664062 161.273438 143.207031 C 160.640625 143.617188 160.460938 144.464844 160.871094 145.097656 C 161.277344 145.730469 162.125 145.910156 162.757812 145.503906 Z M 162.757812 145.503906 " fill-opacity="1" fill-rule="evenodd"/><path fill="#13488e" d="M 119.683594 154.261719 L 119.683594 143.941406 C 119.683594 143.191406 119.074219 142.582031 118.320312 142.582031 L 106.9375 142.582031 C 106.179688 142.582031 105.574219 143.191406 105.574219 143.941406 L 105.574219 162.109375 C 105.574219 162.859375 106.179688 163.46875 106.9375 163.46875 C 107.6875 163.46875 108.300781 162.859375 108.300781 162.109375 L 108.300781 145.300781 C 108.300781 145.300781 116.960938 145.300781 116.960938 145.300781 L 116.960938 154.261719 C 116.960938 155.011719 117.570312 155.625 118.320312 155.625 C 119.074219 155.625 119.683594 155.011719 119.683594 154.261719 Z M 119.683594 154.261719 " fill-opacity="1" fill-rule="evenodd"/><path stroke-linecap="butt" transform="matrix(0.75, 0, 0, 0.75, 134.509155, 188.66927)" fill="none" stroke-linejoin="miter" d="M -0.00178982 1.998265 L 208.430516 1.998265 " stroke="#13488e" stroke-width="4" stroke-opacity="1" stroke-miterlimit="4"/><g fill="#13488e" fill-opacity="1"><g transform="translate(86.307237, 225.04002)"><g><path d="M 0.5625 0 L 0.5625 -0.5625 C 0.957031 -0.570312 1.269531 -0.601562 1.5 -0.65625 C 1.738281 -0.707031 1.921875 -0.789062 2.046875 -0.90625 C 2.171875 -1.03125 2.253906 -1.203125 2.296875 -1.421875 C 2.347656 -1.640625 2.375 -1.925781 2.375 -2.28125 L 2.375 -9.265625 C 2.375 -9.617188 2.351562 -9.898438 2.3125 -10.109375 C 2.28125 -10.328125 2.210938 -10.5 2.109375 -10.625 C 2.003906 -10.75 1.847656 -10.832031 1.640625 -10.875 C 1.441406 -10.925781 1.1875 -10.960938 0.875 -10.984375 L 0.875 -11.546875 L 5.359375 -11.546875 C 6.703125 -11.546875 7.75 -11.304688 8.5 -10.828125 C 9.25 -10.347656 9.625 -9.675781 9.625 -8.8125 C 9.625 -8.144531 9.414062 -7.601562 9 -7.1875 C 8.59375 -6.769531 7.9375 -6.425781 7.03125 -6.15625 L 7.03125 -6.09375 C 7.34375 -6.0625 7.613281 -6.023438 7.84375 -5.984375 C 8.070312 -5.941406 8.273438 -5.894531 8.453125 -5.84375 C 8.640625 -5.789062 8.804688 -5.722656 8.953125 -5.640625 C 9.109375 -5.554688 9.265625 -5.46875 9.421875 -5.375 C 10.304688 -4.738281 10.75 -3.945312 10.75 -3 C 10.75 -2.46875 10.601562 -1.972656 10.3125 -1.515625 C 10.019531 -1.066406 9.609375 -0.710938 9.078125 -0.453125 C 8.898438 -0.359375 8.722656 -0.285156 8.546875 -0.234375 C 8.367188 -0.179688 8.160156 -0.132812 7.921875 -0.09375 C 7.679688 -0.0625 7.398438 -0.0351562 7.078125 -0.015625 C 6.765625 -0.00390625 6.394531 0 5.96875 0 Z M 6.015625 -0.640625 C 7.828125 -0.640625 8.734375 -1.414062 8.734375 -2.96875 C 8.734375 -4.101562 8.265625 -4.894531 7.328125 -5.34375 C 7.171875 -5.40625 7.015625 -5.460938 6.859375 -5.515625 C 6.710938 -5.566406 6.539062 -5.601562 6.34375 -5.625 C 6.144531 -5.65625 5.90625 -5.675781 5.625 -5.6875 C 5.351562 -5.695312 5.019531 -5.703125 4.625 -5.703125 L 3.9375 -5.703125 L 3.9375 -2.359375 C 3.9375 -1.742188 4.097656 -1.300781 4.421875 -1.03125 C 4.742188 -0.769531 5.273438 -0.640625 6.015625 -0.640625 Z M 4.78125 -6.453125 C 5.09375 -6.453125 5.351562 -6.457031 5.5625 -6.46875 C 5.769531 -6.476562 5.945312 -6.492188 6.09375 -6.515625 C 6.25 -6.546875 6.382812 -6.582031 6.5 -6.625 C 6.613281 -6.664062 6.734375 -6.726562 6.859375 -6.8125 C 7.171875 -7.007812 7.394531 -7.25 7.53125 -7.53125 C 7.664062 -7.8125 7.734375 -8.175781 7.734375 -8.625 C 7.734375 -9.414062 7.539062 -9.984375 7.15625 -10.328125 C 6.769531 -10.671875 6.171875 -10.84375 5.359375 -10.84375 L 4.203125 -10.84375 C 4.023438 -10.84375 3.9375 -10.757812 3.9375 -10.59375 L 3.9375 -6.453125 Z M 4.78125 -6.453125 "/></g></g></g><g fill="#13488e" fill-opacity="1"><g transform="translate(104.127209, 225.04002)"><g><path d="M 11.796875 -8.6875 L 11.171875 -8.6875 C 11.140625 -9.113281 11.066406 -9.472656 10.953125 -9.765625 C 10.847656 -10.054688 10.691406 -10.28125 10.484375 -10.4375 C 10.285156 -10.601562 10.03125 -10.722656 9.71875 -10.796875 C 9.40625 -10.867188 9.035156 -10.90625 8.609375 -10.90625 C 8.242188 -10.90625 7.945312 -10.894531 7.71875 -10.875 C 7.488281 -10.863281 7.3125 -10.835938 7.1875 -10.796875 C 7.070312 -10.753906 7 -10.707031 6.96875 -10.65625 C 6.9375 -10.601562 6.921875 -10.53125 6.921875 -10.4375 L 6.921875 -2.421875 C 6.921875 -2.097656 6.941406 -1.820312 6.984375 -1.59375 C 7.023438 -1.363281 7.113281 -1.175781 7.25 -1.03125 C 7.382812 -0.882812 7.578125 -0.769531 7.828125 -0.6875 C 8.085938 -0.613281 8.425781 -0.570312 8.84375 -0.5625 L 8.84375 0 L 3.1875 0 L 3.1875 -0.5625 C 3.601562 -0.570312 3.941406 -0.613281 4.203125 -0.6875 C 4.460938 -0.769531 4.660156 -0.882812 4.796875 -1.03125 C 4.929688 -1.175781 5.019531 -1.363281 5.0625 -1.59375 C 5.101562 -1.820312 5.125 -2.097656 5.125 -2.421875 L 5.125 -10.4375 C 5.125 -10.53125 5.109375 -10.601562 5.078125 -10.65625 C 5.046875 -10.707031 4.972656 -10.753906 4.859375 -10.796875 C 4.753906 -10.835938 4.609375 -10.863281 4.421875 -10.875 C 4.234375 -10.894531 3.976562 -10.90625 3.65625 -10.90625 C 3.269531 -10.90625 2.90625 -10.890625 2.5625 -10.859375 C 2.226562 -10.828125 1.9375 -10.738281 1.6875 -10.59375 C 1.445312 -10.445312 1.253906 -10.222656 1.109375 -9.921875 C 0.960938 -9.628906 0.882812 -9.21875 0.875 -8.6875 L 0.3125 -8.6875 L 0.3125 -11.546875 L 11.640625 -11.546875 Z M 11.796875 -8.6875 "/></g></g></g><g fill="#13488e" fill-opacity="1"><g transform="translate(122.727187, 225.04002)"><g><path d="M 9.875 -8.65625 C 9.875 -8.125 9.785156 -7.644531 9.609375 -7.21875 C 9.441406 -6.800781 9.175781 -6.445312 8.8125 -6.15625 C 8.445312 -5.875 7.972656 -5.648438 7.390625 -5.484375 C 6.804688 -5.328125 6.09375 -5.25 5.25 -5.25 L 3.90625 -5.25 L 3.90625 -2.359375 C 3.90625 -1.984375 3.925781 -1.675781 3.96875 -1.4375 C 4.007812 -1.207031 4.101562 -1.023438 4.25 -0.890625 C 4.394531 -0.765625 4.601562 -0.675781 4.875 -0.625 C 5.15625 -0.582031 5.519531 -0.5625 5.96875 -0.5625 L 5.96875 0 L 0.671875 0 L 0.671875 -0.5625 C 1.023438 -0.570312 1.304688 -0.601562 1.515625 -0.65625 C 1.734375 -0.707031 1.898438 -0.789062 2.015625 -0.90625 C 2.140625 -1.03125 2.222656 -1.203125 2.265625 -1.421875 C 2.304688 -1.640625 2.328125 -1.925781 2.328125 -2.28125 L 2.328125 -9.265625 C 2.328125 -9.617188 2.304688 -9.898438 2.265625 -10.109375 C 2.234375 -10.328125 2.164062 -10.5 2.0625 -10.625 C 1.957031 -10.75 1.804688 -10.832031 1.609375 -10.875 C 1.410156 -10.925781 1.148438 -10.960938 0.828125 -10.984375 L 0.828125 -11.546875 L 5.53125 -11.546875 C 6.914062 -11.546875 7.984375 -11.289062 8.734375 -10.78125 C 9.492188 -10.269531 9.875 -9.5625 9.875 -8.65625 Z M 3.90625 -6 L 4.96875 -6 C 5.96875 -6 6.707031 -6.191406 7.1875 -6.578125 C 7.675781 -6.960938 7.921875 -7.59375 7.921875 -8.46875 C 7.921875 -9.320312 7.726562 -9.929688 7.34375 -10.296875 C 6.957031 -10.660156 6.351562 -10.84375 5.53125 -10.84375 L 4.15625 -10.84375 C 3.988281 -10.84375 3.90625 -10.757812 3.90625 -10.59375 Z M 3.90625 -6 "/></g></g></g><g fill="#13488e" fill-opacity="1"><g transform="translate(139.137167, 225.04002)"><g/></g></g><g fill="#13488e" fill-opacity="1"><g transform="translate(149.997151, 225.04002)"><g><path d="M 0.875 -3.53125 L 1.421875 -3.53125 C 1.492188 -3.070312 1.625 -2.660156 1.8125 -2.296875 C 2.007812 -1.941406 2.253906 -1.640625 2.546875 -1.390625 C 2.847656 -1.140625 3.191406 -0.945312 3.578125 -0.8125 C 3.960938 -0.675781 4.378906 -0.609375 4.828125 -0.609375 C 5.566406 -0.609375 6.148438 -0.785156 6.578125 -1.140625 C 7.015625 -1.492188 7.234375 -1.96875 7.234375 -2.5625 C 7.234375 -2.8125 7.1875 -3.039062 7.09375 -3.25 C 7.007812 -3.457031 6.867188 -3.660156 6.671875 -3.859375 C 6.472656 -4.054688 6.207031 -4.25 5.875 -4.4375 C 5.539062 -4.625 5.117188 -4.832031 4.609375 -5.0625 C 3.984375 -5.320312 3.460938 -5.578125 3.046875 -5.828125 C 2.628906 -6.078125 2.296875 -6.335938 2.046875 -6.609375 C 1.796875 -6.878906 1.613281 -7.164062 1.5 -7.46875 C 1.394531 -7.78125 1.34375 -8.128906 1.34375 -8.515625 C 1.34375 -8.972656 1.425781 -9.394531 1.59375 -9.78125 C 1.757812 -10.175781 1.992188 -10.515625 2.296875 -10.796875 C 2.597656 -11.085938 2.953125 -11.3125 3.359375 -11.46875 C 3.765625 -11.625 4.210938 -11.703125 4.703125 -11.703125 C 5.148438 -11.703125 5.5625 -11.628906 5.9375 -11.484375 C 6.320312 -11.347656 6.707031 -11.125 7.09375 -10.8125 L 7.484375 -11.484375 L 7.828125 -11.484375 L 8 -8.5 L 7.4375 -8.5 C 7.195312 -9.320312 6.847656 -9.929688 6.390625 -10.328125 C 5.941406 -10.734375 5.394531 -10.9375 4.75 -10.9375 C 4.144531 -10.9375 3.660156 -10.785156 3.296875 -10.484375 C 2.941406 -10.179688 2.765625 -9.773438 2.765625 -9.265625 C 2.765625 -9.023438 2.800781 -8.804688 2.875 -8.609375 C 2.957031 -8.421875 3.085938 -8.238281 3.265625 -8.0625 C 3.453125 -7.882812 3.6875 -7.707031 3.96875 -7.53125 C 4.257812 -7.363281 4.625 -7.179688 5.0625 -6.984375 C 5.800781 -6.660156 6.414062 -6.351562 6.90625 -6.0625 C 7.394531 -5.78125 7.78125 -5.492188 8.0625 -5.203125 C 8.351562 -4.921875 8.554688 -4.625 8.671875 -4.3125 C 8.796875 -4 8.859375 -3.644531 8.859375 -3.25 C 8.859375 -2.75 8.757812 -2.289062 8.5625 -1.875 C 8.363281 -1.457031 8.082031 -1.097656 7.71875 -0.796875 C 7.363281 -0.492188 6.9375 -0.257812 6.4375 -0.09375 C 5.9375 0.0703125 5.382812 0.15625 4.78125 0.15625 C 4.21875 0.15625 3.707031 0.078125 3.25 -0.078125 C 2.789062 -0.242188 2.328125 -0.519531 1.859375 -0.90625 L 1.4375 -0.171875 L 1.09375 -0.171875 Z M 0.875 -3.53125 "/></g></g></g><g fill="#13488e" fill-opacity="1"><g transform="translate(166.227138, 225.04002)"><g><path d="M 7.09375 -11.703125 C 7.976562 -11.703125 8.796875 -11.546875 9.546875 -11.234375 C 10.304688 -10.921875 10.96875 -10.492188 11.53125 -9.953125 C 12.09375 -9.421875 12.53125 -8.785156 12.84375 -8.046875 C 13.164062 -7.316406 13.328125 -6.53125 13.328125 -5.6875 C 13.328125 -4.875 13.164062 -4.113281 12.84375 -3.40625 C 12.519531 -2.695312 12.078125 -2.078125 11.515625 -1.546875 C 10.960938 -1.023438 10.304688 -0.609375 9.546875 -0.296875 C 8.785156 0.00390625 7.96875 0.15625 7.09375 0.15625 C 6.226562 0.15625 5.414062 0.00390625 4.65625 -0.296875 C 3.894531 -0.609375 3.234375 -1.023438 2.671875 -1.546875 C 2.109375 -2.078125 1.664062 -2.695312 1.34375 -3.40625 C 1.019531 -4.113281 0.859375 -4.875 0.859375 -5.6875 C 0.859375 -6.53125 1.015625 -7.316406 1.328125 -8.046875 C 1.648438 -8.785156 2.09375 -9.421875 2.65625 -9.953125 C 3.21875 -10.492188 3.878906 -10.921875 4.640625 -11.234375 C 5.398438 -11.546875 6.21875 -11.703125 7.09375 -11.703125 Z M 7.09375 -0.671875 C 7.75 -0.671875 8.335938 -0.785156 8.859375 -1.015625 C 9.390625 -1.242188 9.84375 -1.570312 10.21875 -2 C 10.59375 -2.4375 10.878906 -2.960938 11.078125 -3.578125 C 11.285156 -4.191406 11.390625 -4.878906 11.390625 -5.640625 C 11.390625 -6.441406 11.285156 -7.164062 11.078125 -7.8125 C 10.878906 -8.457031 10.59375 -9.003906 10.21875 -9.453125 C 9.851562 -9.910156 9.40625 -10.257812 8.875 -10.5 C 8.34375 -10.75 7.75 -10.875 7.09375 -10.875 C 6.4375 -10.875 5.84375 -10.75 5.3125 -10.5 C 4.78125 -10.257812 4.328125 -9.910156 3.953125 -9.453125 C 3.585938 -9.003906 3.304688 -8.457031 3.109375 -7.8125 C 2.910156 -7.164062 2.8125 -6.441406 2.8125 -5.640625 C 2.8125 -4.878906 2.910156 -4.191406 3.109375 -3.578125 C 3.304688 -2.960938 3.585938 -2.4375 3.953125 -2 C 4.328125 -1.570312 4.78125 -1.242188 5.3125 -1.015625 C 5.84375 -0.785156 6.4375 -0.671875 7.09375 -0.671875 Z M 7.09375 -0.671875 "/></g></g></g><g fill="#13488e" fill-opacity="1"><g transform="translate(186.777121, 225.04002)"><g><path d="M 10.359375 0 L 0.671875 0 L 0.671875 -0.5625 C 1.023438 -0.570312 1.304688 -0.601562 1.515625 -0.65625 C 1.734375 -0.707031 1.898438 -0.789062 2.015625 -0.90625 C 2.140625 -1.03125 2.222656 -1.203125 2.265625 -1.421875 C 2.304688 -1.640625 2.328125 -1.925781 2.328125 -2.28125 L 2.328125 -9.265625 C 2.328125 -9.617188 2.304688 -9.898438 2.265625 -10.109375 C 2.234375 -10.328125 2.164062 -10.5 2.0625 -10.625 C 1.957031 -10.75 1.804688 -10.832031 1.609375 -10.875 C 1.410156 -10.925781 1.148438 -10.960938 0.828125 -10.984375 L 0.828125 -11.546875 L 5.390625 -11.546875 L 5.390625 -10.984375 C 5.066406 -10.972656 4.804688 -10.941406 4.609375 -10.890625 C 4.410156 -10.835938 4.257812 -10.742188 4.15625 -10.609375 C 4.050781 -10.484375 3.984375 -10.304688 3.953125 -10.078125 C 3.921875 -9.847656 3.90625 -9.546875 3.90625 -9.171875 L 3.90625 -2.703125 C 3.90625 -2.273438 3.945312 -1.929688 4.03125 -1.671875 C 4.113281 -1.410156 4.253906 -1.207031 4.453125 -1.0625 C 4.660156 -0.914062 4.9375 -0.8125 5.28125 -0.75 C 5.625 -0.695312 6.050781 -0.671875 6.5625 -0.671875 C 7.132812 -0.671875 7.613281 -0.703125 8 -0.765625 C 8.394531 -0.835938 8.722656 -0.953125 8.984375 -1.109375 C 9.253906 -1.273438 9.46875 -1.503906 9.625 -1.796875 C 9.78125 -2.097656 9.910156 -2.484375 10.015625 -2.953125 L 10.59375 -2.953125 Z M 10.359375 0 "/></g></g></g><g fill="#13488e" fill-opacity="1"><g transform="translate(203.952104, 225.04002)"><g><path d="M 10.828125 -4.65625 C 10.828125 -3.863281 10.75 -3.164062 10.59375 -2.5625 C 10.4375 -1.96875 10.1875 -1.46875 9.84375 -1.0625 C 9.5 -0.664062 9.050781 -0.363281 8.5 -0.15625 C 7.957031 0.0507812 7.296875 0.15625 6.515625 0.15625 C 5.773438 0.15625 5.128906 0.0820312 4.578125 -0.0625 C 4.023438 -0.207031 3.5625 -0.445312 3.1875 -0.78125 C 2.820312 -1.125 2.546875 -1.5625 2.359375 -2.09375 C 2.179688 -2.632812 2.09375 -3.300781 2.09375 -4.09375 L 2.09375 -8.0625 C 2.09375 -8.800781 2.078125 -9.367188 2.046875 -9.765625 C 2.015625 -10.160156 1.910156 -10.457031 1.734375 -10.65625 C 1.617188 -10.78125 1.457031 -10.863281 1.25 -10.90625 C 1.039062 -10.957031 0.769531 -10.984375 0.4375 -10.984375 L 0.4375 -11.546875 L 5.546875 -11.546875 L 5.546875 -10.984375 C 5.210938 -10.984375 4.9375 -10.960938 4.71875 -10.921875 C 4.507812 -10.878906 4.347656 -10.78125 4.234375 -10.625 C 4.085938 -10.4375 3.992188 -10.144531 3.953125 -9.75 C 3.921875 -9.363281 3.90625 -8.800781 3.90625 -8.0625 L 3.90625 -3.96875 C 3.90625 -3.457031 3.957031 -3.003906 4.0625 -2.609375 C 4.164062 -2.222656 4.335938 -1.890625 4.578125 -1.609375 C 4.816406 -1.335938 5.128906 -1.128906 5.515625 -0.984375 C 5.898438 -0.847656 6.375 -0.78125 6.9375 -0.78125 C 7.9375 -0.78125 8.6875 -1.054688 9.1875 -1.609375 C 9.6875 -2.160156 9.9375 -2.976562 9.9375 -4.0625 L 9.9375 -7.6875 C 9.9375 -8.570312 9.898438 -9.242188 9.828125 -9.703125 C 9.753906 -10.160156 9.625 -10.488281 9.4375 -10.6875 C 9.289062 -10.8125 9.113281 -10.890625 8.90625 -10.921875 C 8.695312 -10.960938 8.4375 -10.984375 8.125 -10.984375 L 8.125 -11.546875 L 12.484375 -11.546875 L 12.484375 -10.984375 C 12.160156 -10.984375 11.894531 -10.957031 11.6875 -10.90625 C 11.488281 -10.851562 11.328125 -10.742188 11.203125 -10.578125 C 11.054688 -10.367188 10.957031 -10.039062 10.90625 -9.59375 C 10.851562 -9.144531 10.828125 -8.507812 10.828125 -7.6875 Z M 10.828125 -4.65625 "/></g></g></g><g fill="#13488e" fill-opacity="1"><g transform="translate(223.422085, 225.04002)"><g><path d="M 11.796875 -8.6875 L 11.171875 -8.6875 C 11.140625 -9.113281 11.066406 -9.472656 10.953125 -9.765625 C 10.847656 -10.054688 10.691406 -10.28125 10.484375 -10.4375 C 10.285156 -10.601562 10.03125 -10.722656 9.71875 -10.796875 C 9.40625 -10.867188 9.035156 -10.90625 8.609375 -10.90625 C 8.242188 -10.90625 7.945312 -10.894531 7.71875 -10.875 C 7.488281 -10.863281 7.3125 -10.835938 7.1875 -10.796875 C 7.070312 -10.753906 7 -10.707031 6.96875 -10.65625 C 6.9375 -10.601562 6.921875 -10.53125 6.921875 -10.4375 L 6.921875 -2.421875 C 6.921875 -2.097656 6.941406 -1.820312 6.984375 -1.59375 C 7.023438 -1.363281 7.113281 -1.175781 7.25 -1.03125 C 7.382812 -0.882812 7.578125 -0.769531 7.828125 -0.6875 C 8.085938 -0.613281 8.425781 -0.570312 8.84375 -0.5625 L 8.84375 0 L 3.1875 0 L 3.1875 -0.5625 C 3.601562 -0.570312 3.941406 -0.613281 4.203125 -0.6875 C 4.460938 -0.769531 4.660156 -0.882812 4.796875 -1.03125 C 4.929688 -1.175781 5.019531 -1.363281 5.0625 -1.59375 C 5.101562 -1.820312 5.125 -2.097656 5.125 -2.421875 L 5.125 -10.4375 C 5.125 -10.53125 5.109375 -10.601562 5.078125 -10.65625 C 5.046875 -10.707031 4.972656 -10.753906 4.859375 -10.796875 C 4.753906 -10.835938 4.609375 -10.863281 4.421875 -10.875 C 4.234375 -10.894531 3.976562 -10.90625 3.65625 -10.90625 C 3.269531 -10.90625 2.90625 -10.890625 2.5625 -10.859375 C 2.226562 -10.828125 1.9375 -10.738281 1.6875 -10.59375 C 1.445312 -10.445312 1.253906 -10.222656 1.109375 -9.921875 C 0.960938 -9.628906 0.882812 -9.21875 0.875 -8.6875 L 0.3125 -8.6875 L 0.3125 -11.546875 L 11.640625 -11.546875 Z M 11.796875 -8.6875 "/></g></g></g><g fill="#13488e" fill-opacity="1"><g transform="translate(242.022064, 225.04002)"><g><path d="M 3.90625 -2.828125 C 3.90625 -2.328125 3.921875 -1.929688 3.953125 -1.640625 C 3.992188 -1.359375 4.070312 -1.132812 4.1875 -0.96875 C 4.300781 -0.8125 4.46875 -0.707031 4.6875 -0.65625 C 4.90625 -0.601562 5.1875 -0.570312 5.53125 -0.5625 L 5.53125 0 L 0.671875 0 L 0.671875 -0.5625 C 1.023438 -0.570312 1.304688 -0.601562 1.515625 -0.65625 C 1.734375 -0.71875 1.898438 -0.820312 2.015625 -0.96875 C 2.140625 -1.125 2.222656 -1.335938 2.265625 -1.609375 C 2.304688 -1.890625 2.328125 -2.265625 2.328125 -2.734375 L 2.328125 -8.8125 C 2.328125 -9.238281 2.304688 -9.585938 2.265625 -9.859375 C 2.234375 -10.140625 2.164062 -10.359375 2.0625 -10.515625 C 1.957031 -10.671875 1.804688 -10.78125 1.609375 -10.84375 C 1.410156 -10.914062 1.148438 -10.960938 0.828125 -10.984375 L 0.828125 -11.546875 L 5.390625 -11.546875 L 5.390625 -10.984375 C 5.066406 -10.972656 4.804688 -10.929688 4.609375 -10.859375 C 4.410156 -10.785156 4.257812 -10.664062 4.15625 -10.5 C 4.050781 -10.34375 3.984375 -10.117188 3.953125 -9.828125 C 3.921875 -9.535156 3.90625 -9.164062 3.90625 -8.71875 Z M 3.90625 -2.828125 "/></g></g></g><g fill="#13488e" fill-opacity="1"><g transform="translate(254.592047, 225.04002)"><g><path d="M 7.09375 -11.703125 C 7.976562 -11.703125 8.796875 -11.546875 9.546875 -11.234375 C 10.304688 -10.921875 10.96875 -10.492188 11.53125 -9.953125 C 12.09375 -9.421875 12.53125 -8.785156 12.84375 -8.046875 C 13.164062 -7.316406 13.328125 -6.53125 13.328125 -5.6875 C 13.328125 -4.875 13.164062 -4.113281 12.84375 -3.40625 C 12.519531 -2.695312 12.078125 -2.078125 11.515625 -1.546875 C 10.960938 -1.023438 10.304688 -0.609375 9.546875 -0.296875 C 8.785156 0.00390625 7.96875 0.15625 7.09375 0.15625 C 6.226562 0.15625 5.414062 0.00390625 4.65625 -0.296875 C 3.894531 -0.609375 3.234375 -1.023438 2.671875 -1.546875 C 2.109375 -2.078125 1.664062 -2.695312 1.34375 -3.40625 C 1.019531 -4.113281 0.859375 -4.875 0.859375 -5.6875 C 0.859375 -6.53125 1.015625 -7.316406 1.328125 -8.046875 C 1.648438 -8.785156 2.09375 -9.421875 2.65625 -9.953125 C 3.21875 -10.492188 3.878906 -10.921875 4.640625 -11.234375 C 5.398438 -11.546875 6.21875 -11.703125 7.09375 -11.703125 Z M 7.09375 -0.671875 C 7.75 -0.671875 8.335938 -0.785156 8.859375 -1.015625 C 9.390625 -1.242188 9.84375 -1.570312 10.21875 -2 C 10.59375 -2.4375 10.878906 -2.960938 11.078125 -3.578125 C 11.285156 -4.191406 11.390625 -4.878906 11.390625 -5.640625 C 11.390625 -6.441406 11.285156 -7.164062 11.078125 -7.8125 C 10.878906 -8.457031 10.59375 -9.003906 10.21875 -9.453125 C 9.851562 -9.910156 9.40625 -10.257812 8.875 -10.5 C 8.34375 -10.75 7.75 -10.875 7.09375 -10.875 C 6.4375 -10.875 5.84375 -10.75 5.3125 -10.5 C 4.78125 -10.257812 4.328125 -9.910156 3.953125 -9.453125 C 3.585938 -9.003906 3.304688 -8.457031 3.109375 -7.8125 C 2.910156 -7.164062 2.8125 -6.441406 2.8125 -5.640625 C 2.8125 -4.878906 2.910156 -4.191406 3.109375 -3.578125 C 3.304688 -2.960938 3.585938 -2.4375 3.953125 -2 C 4.328125 -1.570312 4.78125 -1.242188 5.3125 -1.015625 C 5.84375 -0.785156 6.4375 -0.671875 7.09375 -0.671875 Z M 7.09375 -0.671875 "/></g></g></g><g fill="#13488e" fill-opacity="1"><g transform="translate(275.14203, 225.04002)"><g><path d="M 10.40625 0.15625 L 3.28125 -9.234375 L 3.21875 -9.234375 L 3.21875 -2.828125 C 3.21875 -2.328125 3.234375 -1.929688 3.265625 -1.640625 C 3.304688 -1.359375 3.378906 -1.132812 3.484375 -0.96875 C 3.585938 -0.8125 3.738281 -0.707031 3.9375 -0.65625 C 4.132812 -0.601562 4.390625 -0.570312 4.703125 -0.5625 L 4.703125 0 L 0.671875 0 L 0.671875 -0.5625 C 1.023438 -0.570312 1.304688 -0.601562 1.515625 -0.65625 C 1.734375 -0.71875 1.898438 -0.820312 2.015625 -0.96875 C 2.140625 -1.125 2.222656 -1.335938 2.265625 -1.609375 C 2.304688 -1.890625 2.328125 -2.265625 2.328125 -2.734375 L 2.328125 -8.8125 C 2.328125 -9.238281 2.304688 -9.585938 2.265625 -9.859375 C 2.234375 -10.140625 2.164062 -10.359375 2.0625 -10.515625 C 1.957031 -10.671875 1.804688 -10.78125 1.609375 -10.84375 C 1.410156 -10.914062 1.148438 -10.960938 0.828125 -10.984375 L 0.828125 -11.546875 L 3.796875 -11.546875 L 10.34375 -2.8125 L 10.40625 -2.8125 L 10.40625 -8.71875 C 10.40625 -9.207031 10.390625 -9.597656 10.359375 -9.890625 C 10.328125 -10.179688 10.253906 -10.40625 10.140625 -10.5625 C 10.035156 -10.726562 9.882812 -10.835938 9.6875 -10.890625 C 9.5 -10.941406 9.242188 -10.972656 8.921875 -10.984375 L 8.921875 -11.546875 L 12.953125 -11.546875 L 12.953125 -10.984375 C 12.609375 -10.972656 12.328125 -10.9375 12.109375 -10.875 C 11.898438 -10.820312 11.734375 -10.71875 11.609375 -10.5625 C 11.492188 -10.414062 11.414062 -10.203125 11.375 -9.921875 C 11.332031 -9.648438 11.3125 -9.28125 11.3125 -8.8125 L 11.3125 0.15625 Z M 10.40625 0.15625 "/></g></g></g><g fill="#13488e" fill-opacity="1"><g transform="translate(134.321803, 237.833363)"><g><path d="M 2.34375 -3.8125 C 2.664062 -3.8125 2.9375 -3.828125 3.15625 -3.859375 C 3.375 -3.898438 3.546875 -3.960938 3.671875 -4.046875 C 3.804688 -4.128906 3.898438 -4.238281 3.953125 -4.375 C 4.015625 -4.507812 4.046875 -4.664062 4.046875 -4.84375 L 4.359375 -4.84375 L 4.359375 -2.390625 L 4.046875 -2.390625 C 4.046875 -2.566406 4.019531 -2.71875 3.96875 -2.84375 C 3.914062 -2.976562 3.820312 -3.085938 3.6875 -3.171875 C 3.5625 -3.265625 3.390625 -3.332031 3.171875 -3.375 C 2.953125 -3.425781 2.675781 -3.453125 2.34375 -3.453125 L 2.34375 -1.40625 C 2.34375 -1.207031 2.363281 -1.046875 2.40625 -0.921875 C 2.457031 -0.796875 2.539062 -0.691406 2.65625 -0.609375 C 2.769531 -0.523438 2.921875 -0.46875 3.109375 -0.4375 C 3.304688 -0.40625 3.546875 -0.390625 3.828125 -0.390625 C 4.148438 -0.390625 4.421875 -0.410156 4.640625 -0.453125 C 4.867188 -0.492188 5.054688 -0.566406 5.203125 -0.671875 C 5.347656 -0.785156 5.46875 -0.929688 5.5625 -1.109375 C 5.65625 -1.285156 5.726562 -1.503906 5.78125 -1.765625 L 6.125 -1.765625 L 6 0 L 0.40625 0 L 0.40625 -0.34375 C 0.613281 -0.34375 0.78125 -0.359375 0.90625 -0.390625 C 1.039062 -0.421875 1.144531 -0.472656 1.21875 -0.546875 C 1.289062 -0.617188 1.335938 -0.71875 1.359375 -0.84375 C 1.378906 -0.976562 1.390625 -1.15625 1.390625 -1.375 L 1.390625 -5.5625 C 1.390625 -5.769531 1.378906 -5.9375 1.359375 -6.0625 C 1.335938 -6.195312 1.296875 -6.300781 1.234375 -6.375 C 1.171875 -6.445312 1.078125 -6.492188 0.953125 -6.515625 C 0.835938 -6.546875 0.6875 -6.570312 0.5 -6.59375 L 0.5 -6.9375 L 5.703125 -6.9375 L 5.78125 -5.34375 L 5.46875 -5.34375 C 5.425781 -5.582031 5.363281 -5.78125 5.28125 -5.9375 C 5.207031 -6.09375 5.097656 -6.210938 4.953125 -6.296875 C 4.816406 -6.390625 4.640625 -6.453125 4.421875 -6.484375 C 4.203125 -6.523438 3.941406 -6.546875 3.640625 -6.546875 L 2.5 -6.546875 C 2.394531 -6.546875 2.34375 -6.492188 2.34375 -6.390625 Z M 2.34375 -3.8125 "/></g></g></g><g fill="#13488e" fill-opacity="1"><g transform="translate(143.87985, 237.833363)"><g><path d="M 6.25 0.09375 L 1.96875 -5.546875 L 1.9375 -5.546875 L 1.9375 -1.703125 C 1.9375 -1.398438 1.945312 -1.160156 1.96875 -0.984375 C 1.988281 -0.816406 2.03125 -0.679688 2.09375 -0.578125 C 2.15625 -0.484375 2.242188 -0.421875 2.359375 -0.390625 C 2.472656 -0.359375 2.628906 -0.34375 2.828125 -0.34375 L 2.828125 0 L 0.40625 0 L 0.40625 -0.34375 C 0.613281 -0.34375 0.78125 -0.359375 0.90625 -0.390625 C 1.039062 -0.429688 1.144531 -0.492188 1.21875 -0.578125 C 1.289062 -0.671875 1.335938 -0.800781 1.359375 -0.96875 C 1.378906 -1.132812 1.390625 -1.359375 1.390625 -1.640625 L 1.390625 -5.296875 C 1.390625 -5.546875 1.378906 -5.753906 1.359375 -5.921875 C 1.335938 -6.085938 1.296875 -6.21875 1.234375 -6.3125 C 1.171875 -6.40625 1.078125 -6.46875 0.953125 -6.5 C 0.835938 -6.539062 0.6875 -6.570312 0.5 -6.59375 L 0.5 -6.9375 L 2.28125 -6.9375 L 6.203125 -1.6875 L 6.25 -1.6875 L 6.25 -5.234375 C 6.25 -5.523438 6.238281 -5.757812 6.21875 -5.9375 C 6.195312 -6.113281 6.15625 -6.25 6.09375 -6.34375 C 6.03125 -6.4375 5.9375 -6.5 5.8125 -6.53125 C 5.695312 -6.5625 5.546875 -6.582031 5.359375 -6.59375 L 5.359375 -6.9375 L 7.78125 -6.9375 L 7.78125 -6.59375 C 7.570312 -6.582031 7.398438 -6.5625 7.265625 -6.53125 C 7.140625 -6.5 7.039062 -6.4375 6.96875 -6.34375 C 6.894531 -6.25 6.84375 -6.117188 6.8125 -5.953125 C 6.789062 -5.785156 6.78125 -5.566406 6.78125 -5.296875 L 6.78125 0.09375 Z M 6.25 0.09375 "/></g></g></g><g fill="#13488e" fill-opacity="1"><g transform="translate(155.021909, 237.833363)"><g><path d="M 2.34375 -3.8125 C 2.664062 -3.8125 2.9375 -3.828125 3.15625 -3.859375 C 3.375 -3.898438 3.546875 -3.960938 3.671875 -4.046875 C 3.804688 -4.128906 3.898438 -4.238281 3.953125 -4.375 C 4.015625 -4.507812 4.046875 -4.664062 4.046875 -4.84375 L 4.359375 -4.84375 L 4.359375 -2.390625 L 4.046875 -2.390625 C 4.046875 -2.566406 4.019531 -2.71875 3.96875 -2.84375 C 3.914062 -2.976562 3.820312 -3.085938 3.6875 -3.171875 C 3.5625 -3.265625 3.390625 -3.332031 3.171875 -3.375 C 2.953125 -3.425781 2.675781 -3.453125 2.34375 -3.453125 L 2.34375 -1.40625 C 2.34375 -1.207031 2.363281 -1.046875 2.40625 -0.921875 C 2.457031 -0.796875 2.539062 -0.691406 2.65625 -0.609375 C 2.769531 -0.523438 2.921875 -0.46875 3.109375 -0.4375 C 3.304688 -0.40625 3.546875 -0.390625 3.828125 -0.390625 C 4.148438 -0.390625 4.421875 -0.410156 4.640625 -0.453125 C 4.867188 -0.492188 5.054688 -0.566406 5.203125 -0.671875 C 5.347656 -0.785156 5.46875 -0.929688 5.5625 -1.109375 C 5.65625 -1.285156 5.726562 -1.503906 5.78125 -1.765625 L 6.125 -1.765625 L 6 0 L 0.40625 0 L 0.40625 -0.34375 C 0.613281 -0.34375 0.78125 -0.359375 0.90625 -0.390625 C 1.039062 -0.421875 1.144531 -0.472656 1.21875 -0.546875 C 1.289062 -0.617188 1.335938 -0.71875 1.359375 -0.84375 C 1.378906 -0.976562 1.390625 -1.15625 1.390625 -1.375 L 1.390625 -5.5625 C 1.390625 -5.769531 1.378906 -5.9375 1.359375 -6.0625 C 1.335938 -6.195312 1.296875 -6.300781 1.234375 -6.375 C 1.171875 -6.445312 1.078125 -6.492188 0.953125 -6.515625 C 0.835938 -6.546875 0.6875 -6.570312 0.5 -6.59375 L 0.5 -6.9375 L 5.703125 -6.9375 L 5.78125 -5.34375 L 5.46875 -5.34375 C 5.425781 -5.582031 5.363281 -5.78125 5.28125 -5.9375 C 5.207031 -6.09375 5.097656 -6.210938 4.953125 -6.296875 C 4.816406 -6.390625 4.640625 -6.453125 4.421875 -6.484375 C 4.203125 -6.523438 3.941406 -6.546875 3.640625 -6.546875 L 2.5 -6.546875 C 2.394531 -6.546875 2.34375 -6.492188 2.34375 -6.390625 Z M 2.34375 -3.8125 "/></g></g></g><g fill="#13488e" fill-opacity="1"><g transform="translate(164.579957, 237.833363)"><g><path d="M 5.921875 -5.1875 C 5.921875 -4.707031 5.773438 -4.304688 5.484375 -3.984375 C 5.203125 -3.671875 4.742188 -3.460938 4.109375 -3.359375 L 6.109375 -0.96875 C 6.265625 -0.769531 6.441406 -0.625 6.640625 -0.53125 C 6.835938 -0.445312 7.066406 -0.382812 7.328125 -0.34375 L 7.328125 0 L 5.59375 0 L 3.390625 -2.828125 C 3.316406 -2.929688 3.242188 -3.007812 3.171875 -3.0625 C 3.097656 -3.125 3.023438 -3.171875 2.953125 -3.203125 C 2.878906 -3.242188 2.789062 -3.265625 2.6875 -3.265625 C 2.59375 -3.273438 2.476562 -3.28125 2.34375 -3.28125 L 2.34375 -1.40625 C 2.34375 -1.1875 2.351562 -1.003906 2.375 -0.859375 C 2.40625 -0.722656 2.460938 -0.613281 2.546875 -0.53125 C 2.640625 -0.457031 2.765625 -0.40625 2.921875 -0.375 C 3.085938 -0.351562 3.304688 -0.34375 3.578125 -0.34375 L 3.578125 0 L 0.40625 0 L 0.40625 -0.34375 C 0.613281 -0.34375 0.78125 -0.359375 0.90625 -0.390625 C 1.039062 -0.421875 1.144531 -0.472656 1.21875 -0.546875 C 1.289062 -0.617188 1.335938 -0.71875 1.359375 -0.84375 C 1.378906 -0.976562 1.390625 -1.15625 1.390625 -1.375 L 1.390625 -5.5625 C 1.390625 -5.769531 1.378906 -5.9375 1.359375 -6.0625 C 1.335938 -6.195312 1.296875 -6.300781 1.234375 -6.375 C 1.171875 -6.445312 1.078125 -6.492188 0.953125 -6.515625 C 0.835938 -6.546875 0.6875 -6.570312 0.5 -6.59375 L 0.5 -6.9375 L 3.328125 -6.9375 C 4.148438 -6.9375 4.785156 -6.78125 5.234375 -6.46875 C 5.691406 -6.164062 5.921875 -5.738281 5.921875 -5.1875 Z M 2.34375 -3.734375 L 2.984375 -3.734375 C 3.578125 -3.734375 4.019531 -3.84375 4.3125 -4.0625 C 4.601562 -4.28125 4.75 -4.640625 4.75 -5.140625 C 4.75 -5.628906 4.632812 -5.976562 4.40625 -6.1875 C 4.175781 -6.394531 3.816406 -6.5 3.328125 -6.5 L 2.5 -6.5 C 2.394531 -6.5 2.34375 -6.453125 2.34375 -6.359375 Z M 2.34375 -3.734375 "/></g></g></g><g fill="#13488e" fill-opacity="1"><g transform="translate(174.588009, 237.833363)"><g><path d="M 3.859375 0.09375 C 3.347656 0.09375 2.882812 0.015625 2.46875 -0.140625 C 2.0625 -0.304688 1.710938 -0.535156 1.421875 -0.828125 C 1.140625 -1.128906 0.921875 -1.492188 0.765625 -1.921875 C 0.617188 -2.347656 0.546875 -2.820312 0.546875 -3.34375 C 0.546875 -3.894531 0.628906 -4.394531 0.796875 -4.84375 C 0.960938 -5.289062 1.195312 -5.675781 1.5 -6 C 1.800781 -6.320312 2.160156 -6.570312 2.578125 -6.75 C 3.003906 -6.925781 3.472656 -7.015625 3.984375 -7.015625 C 4.347656 -7.015625 4.6875 -6.960938 5 -6.859375 C 5.320312 -6.765625 5.664062 -6.601562 6.03125 -6.375 L 6.234375 -6.9375 L 6.546875 -6.9375 L 6.421875 -4.859375 L 6 -4.859375 C 6 -5.148438 5.941406 -5.398438 5.828125 -5.609375 C 5.710938 -5.828125 5.566406 -6.003906 5.390625 -6.140625 C 5.210938 -6.285156 5.003906 -6.390625 4.765625 -6.453125 C 4.535156 -6.515625 4.300781 -6.546875 4.0625 -6.546875 C 3.695312 -6.546875 3.367188 -6.472656 3.078125 -6.328125 C 2.796875 -6.191406 2.554688 -5.988281 2.359375 -5.71875 C 2.160156 -5.445312 2.007812 -5.113281 1.90625 -4.71875 C 1.800781 -4.332031 1.75 -3.894531 1.75 -3.40625 C 1.75 -2.4375 1.945312 -1.691406 2.34375 -1.171875 C 2.75 -0.648438 3.332031 -0.390625 4.09375 -0.390625 C 4.382812 -0.390625 4.644531 -0.425781 4.875 -0.5 C 5.101562 -0.570312 5.296875 -0.664062 5.453125 -0.78125 C 5.609375 -0.894531 5.726562 -1.023438 5.8125 -1.171875 C 5.894531 -1.328125 5.9375 -1.492188 5.9375 -1.671875 C 5.9375 -2.015625 5.863281 -2.25 5.71875 -2.375 C 5.582031 -2.5 5.351562 -2.5625 5.03125 -2.5625 L 5.03125 -2.890625 L 7.59375 -2.890625 L 7.59375 -2.5625 C 7.445312 -2.5625 7.320312 -2.546875 7.21875 -2.515625 C 7.125 -2.492188 7.046875 -2.453125 6.984375 -2.390625 C 6.929688 -2.328125 6.894531 -2.242188 6.875 -2.140625 C 6.851562 -2.035156 6.84375 -1.90625 6.84375 -1.75 L 6.84375 -0.75 C 6.726562 -0.75 6.625 -0.742188 6.53125 -0.734375 C 6.445312 -0.722656 6.351562 -0.703125 6.25 -0.671875 C 6.144531 -0.640625 6.03125 -0.59375 5.90625 -0.53125 C 5.78125 -0.476562 5.632812 -0.40625 5.46875 -0.3125 C 5.257812 -0.1875 5.019531 -0.0859375 4.75 -0.015625 C 4.476562 0.0546875 4.179688 0.09375 3.859375 0.09375 Z M 3.859375 0.09375 "/></g></g></g><g fill="#13488e" fill-opacity="1"><g transform="translate(185.442065, 237.833363)"><g><path d="M 2.34375 -3.8125 C 2.664062 -3.8125 2.9375 -3.828125 3.15625 -3.859375 C 3.375 -3.898438 3.546875 -3.960938 3.671875 -4.046875 C 3.804688 -4.128906 3.898438 -4.238281 3.953125 -4.375 C 4.015625 -4.507812 4.046875 -4.664062 4.046875 -4.84375 L 4.359375 -4.84375 L 4.359375 -2.390625 L 4.046875 -2.390625 C 4.046875 -2.566406 4.019531 -2.71875 3.96875 -2.84375 C 3.914062 -2.976562 3.820312 -3.085938 3.6875 -3.171875 C 3.5625 -3.265625 3.390625 -3.332031 3.171875 -3.375 C 2.953125 -3.425781 2.675781 -3.453125 2.34375 -3.453125 L 2.34375 -1.40625 C 2.34375 -1.207031 2.363281 -1.046875 2.40625 -0.921875 C 2.457031 -0.796875 2.539062 -0.691406 2.65625 -0.609375 C 2.769531 -0.523438 2.921875 -0.46875 3.109375 -0.4375 C 3.304688 -0.40625 3.546875 -0.390625 3.828125 -0.390625 C 4.148438 -0.390625 4.421875 -0.410156 4.640625 -0.453125 C 4.867188 -0.492188 5.054688 -0.566406 5.203125 -0.671875 C 5.347656 -0.785156 5.46875 -0.929688 5.5625 -1.109375 C 5.65625 -1.285156 5.726562 -1.503906 5.78125 -1.765625 L 6.125 -1.765625 L 6 0 L 0.40625 0 L 0.40625 -0.34375 C 0.613281 -0.34375 0.78125 -0.359375 0.90625 -0.390625 C 1.039062 -0.421875 1.144531 -0.472656 1.21875 -0.546875 C 1.289062 -0.617188 1.335938 -0.71875 1.359375 -0.84375 C 1.378906 -0.976562 1.390625 -1.15625 1.390625 -1.375 L 1.390625 -5.5625 C 1.390625 -5.769531 1.378906 -5.9375 1.359375 -6.0625 C 1.335938 -6.195312 1.296875 -6.300781 1.234375 -6.375 C 1.171875 -6.445312 1.078125 -6.492188 0.953125 -6.515625 C 0.835938 -6.546875 0.6875 -6.570312 0.5 -6.59375 L 0.5 -6.9375 L 5.703125 -6.9375 L 5.78125 -5.34375 L 5.46875 -5.34375 C 5.425781 -5.582031 5.363281 -5.78125 5.28125 -5.9375 C 5.207031 -6.09375 5.097656 -6.210938 4.953125 -6.296875 C 4.816406 -6.390625 4.640625 -6.453125 4.421875 -6.484375 C 4.203125 -6.523438 3.941406 -6.546875 3.640625 -6.546875 L 2.5 -6.546875 C 2.394531 -6.546875 2.34375 -6.492188 2.34375 -6.390625 Z M 2.34375 -3.8125 "/></g></g></g><g fill="#13488e" fill-opacity="1"><g transform="translate(195.000113, 237.833363)"><g><path d="M 7.078125 -5.21875 L 6.703125 -5.21875 C 6.679688 -5.46875 6.640625 -5.679688 6.578125 -5.859375 C 6.515625 -6.035156 6.421875 -6.171875 6.296875 -6.265625 C 6.171875 -6.367188 6.015625 -6.441406 5.828125 -6.484375 C 5.640625 -6.523438 5.421875 -6.546875 5.171875 -6.546875 C 4.941406 -6.546875 4.757812 -6.539062 4.625 -6.53125 C 4.488281 -6.519531 4.382812 -6.5 4.3125 -6.46875 C 4.25 -6.445312 4.207031 -6.421875 4.1875 -6.390625 C 4.164062 -6.359375 4.15625 -6.316406 4.15625 -6.265625 L 4.15625 -1.453125 C 4.15625 -1.253906 4.164062 -1.085938 4.1875 -0.953125 C 4.21875 -0.816406 4.269531 -0.703125 4.34375 -0.609375 C 4.425781 -0.523438 4.546875 -0.457031 4.703125 -0.40625 C 4.859375 -0.363281 5.0625 -0.34375 5.3125 -0.34375 L 5.3125 0 L 1.90625 0 L 1.90625 -0.34375 C 2.15625 -0.34375 2.359375 -0.363281 2.515625 -0.40625 C 2.671875 -0.457031 2.789062 -0.523438 2.875 -0.609375 C 2.957031 -0.703125 3.007812 -0.816406 3.03125 -0.953125 C 3.0625 -1.085938 3.078125 -1.253906 3.078125 -1.453125 L 3.078125 -6.265625 C 3.078125 -6.316406 3.066406 -6.359375 3.046875 -6.390625 C 3.023438 -6.421875 2.984375 -6.445312 2.921875 -6.46875 C 2.859375 -6.5 2.769531 -6.519531 2.65625 -6.53125 C 2.539062 -6.539062 2.390625 -6.546875 2.203125 -6.546875 C 1.960938 -6.546875 1.738281 -6.535156 1.53125 -6.515625 C 1.332031 -6.492188 1.160156 -6.441406 1.015625 -6.359375 C 0.867188 -6.273438 0.75 -6.140625 0.65625 -5.953125 C 0.570312 -5.773438 0.523438 -5.53125 0.515625 -5.21875 L 0.1875 -5.21875 L 0.1875 -6.9375 L 6.984375 -6.9375 Z M 7.078125 -5.21875 "/></g></g></g><g fill="#13488e" fill-opacity="1"><g transform="translate(205.251157, 237.833363)"><g><path d="M 2.34375 -1.703125 C 2.34375 -1.398438 2.351562 -1.160156 2.375 -0.984375 C 2.394531 -0.816406 2.441406 -0.679688 2.515625 -0.578125 C 2.585938 -0.484375 2.6875 -0.421875 2.8125 -0.390625 C 2.9375 -0.359375 3.109375 -0.34375 3.328125 -0.34375 L 3.328125 0 L 0.40625 0 L 0.40625 -0.34375 C 0.613281 -0.34375 0.78125 -0.359375 0.90625 -0.390625 C 1.039062 -0.429688 1.144531 -0.492188 1.21875 -0.578125 C 1.289062 -0.671875 1.335938 -0.800781 1.359375 -0.96875 C 1.378906 -1.132812 1.390625 -1.359375 1.390625 -1.640625 L 1.390625 -5.296875 C 1.390625 -5.546875 1.378906 -5.753906 1.359375 -5.921875 C 1.335938 -6.085938 1.296875 -6.21875 1.234375 -6.3125 C 1.171875 -6.40625 1.078125 -6.46875 0.953125 -6.5 C 0.835938 -6.539062 0.6875 -6.570312 0.5 -6.59375 L 0.5 -6.9375 L 3.234375 -6.9375 L 3.234375 -6.59375 C 3.035156 -6.582031 2.878906 -6.554688 2.765625 -6.515625 C 2.648438 -6.472656 2.5625 -6.398438 2.5 -6.296875 C 2.4375 -6.203125 2.394531 -6.066406 2.375 -5.890625 C 2.351562 -5.722656 2.34375 -5.503906 2.34375 -5.234375 Z M 2.34375 -1.703125 "/></g></g></g><g fill="#13488e" fill-opacity="1"><g transform="translate(211.902189, 237.833363)"><g><path d="M 4.265625 -7.015625 C 4.796875 -7.015625 5.285156 -6.921875 5.734375 -6.734375 C 6.191406 -6.554688 6.585938 -6.300781 6.921875 -5.96875 C 7.265625 -5.644531 7.53125 -5.265625 7.71875 -4.828125 C 7.914062 -4.390625 8.015625 -3.914062 8.015625 -3.40625 C 8.015625 -2.84375 7.894531 -2.328125 7.65625 -1.859375 C 7.425781 -1.390625 7.117188 -0.988281 6.734375 -0.65625 C 6.484375 -0.4375 6.203125 -0.253906 5.890625 -0.109375 C 5.578125 0.0351562 5.25 0.171875 4.90625 0.296875 C 4.75 0.359375 4.59375 0.425781 4.4375 0.5 C 4.289062 0.570312 4.148438 0.65625 4.015625 0.75 L 4.015625 0.796875 C 4.054688 0.785156 4.109375 0.78125 4.171875 0.78125 C 4.234375 0.78125 4.289062 0.78125 4.34375 0.78125 C 4.613281 0.78125 4.863281 0.8125 5.09375 0.875 C 5.320312 0.945312 5.546875 1.023438 5.765625 1.109375 C 5.992188 1.191406 6.21875 1.269531 6.4375 1.34375 C 6.664062 1.414062 6.898438 1.453125 7.140625 1.453125 C 7.421875 1.453125 7.632812 1.390625 7.78125 1.265625 C 7.925781 1.148438 8.046875 0.941406 8.140625 0.640625 L 8.359375 0.640625 C 8.367188 0.703125 8.375 0.765625 8.375 0.828125 C 8.382812 0.890625 8.390625 0.957031 8.390625 1.03125 C 8.390625 1.21875 8.347656 1.390625 8.265625 1.546875 C 8.191406 1.710938 8.082031 1.851562 7.9375 1.96875 C 7.800781 2.082031 7.632812 2.171875 7.4375 2.234375 C 7.25 2.304688 7.046875 2.34375 6.828125 2.34375 C 6.484375 2.34375 6.171875 2.273438 5.890625 2.140625 C 5.609375 2.015625 5.335938 1.875 5.078125 1.71875 C 4.828125 1.570312 4.582031 1.429688 4.34375 1.296875 C 4.113281 1.171875 3.882812 1.109375 3.65625 1.109375 C 3.5 1.109375 3.367188 1.132812 3.265625 1.1875 C 3.171875 1.25 3.082031 1.316406 3 1.390625 C 2.925781 1.472656 2.851562 1.539062 2.78125 1.59375 C 2.71875 1.65625 2.632812 1.6875 2.53125 1.6875 C 2.363281 1.6875 2.28125 1.613281 2.28125 1.46875 C 2.28125 1.425781 2.285156 1.390625 2.296875 1.359375 C 2.304688 1.328125 2.332031 1.289062 2.375 1.25 C 2.414062 1.21875 2.472656 1.175781 2.546875 1.125 C 2.617188 1.070312 2.726562 1.003906 2.875 0.921875 L 4.046875 0.265625 C 3.535156 0.242188 3.0625 0.140625 2.625 -0.046875 C 2.195312 -0.242188 1.828125 -0.503906 1.515625 -0.828125 C 1.203125 -1.160156 0.957031 -1.546875 0.78125 -1.984375 C 0.601562 -2.421875 0.515625 -2.890625 0.515625 -3.390625 C 0.515625 -3.898438 0.609375 -4.375 0.796875 -4.8125 C 0.992188 -5.257812 1.257812 -5.644531 1.59375 -5.96875 C 1.9375 -6.300781 2.332031 -6.554688 2.78125 -6.734375 C 3.238281 -6.921875 3.734375 -7.015625 4.265625 -7.015625 Z M 4.265625 -0.1875 C 4.660156 -0.1875 5.015625 -0.257812 5.328125 -0.40625 C 5.648438 -0.550781 5.921875 -0.765625 6.140625 -1.046875 C 6.367188 -1.328125 6.539062 -1.660156 6.65625 -2.046875 C 6.78125 -2.441406 6.84375 -2.890625 6.84375 -3.390625 C 6.84375 -3.867188 6.78125 -4.300781 6.65625 -4.6875 C 6.539062 -5.070312 6.367188 -5.398438 6.140625 -5.671875 C 5.921875 -5.941406 5.648438 -6.148438 5.328125 -6.296875 C 5.015625 -6.453125 4.660156 -6.53125 4.265625 -6.53125 C 3.867188 -6.53125 3.507812 -6.453125 3.1875 -6.296875 C 2.875 -6.148438 2.601562 -5.941406 2.375 -5.671875 C 2.15625 -5.398438 1.984375 -5.070312 1.859375 -4.6875 C 1.742188 -4.300781 1.6875 -3.867188 1.6875 -3.390625 C 1.6875 -2.890625 1.742188 -2.441406 1.859375 -2.046875 C 1.984375 -1.660156 2.15625 -1.328125 2.375 -1.046875 C 2.601562 -0.765625 2.875 -0.550781 3.1875 -0.40625 C 3.507812 -0.257812 3.867188 -0.1875 4.265625 -0.1875 Z M 4.265625 -0.1875 "/></g></g></g><g fill="#13488e" fill-opacity="1"><g transform="translate(223.359246, 237.833363)"><g><path d="M 6.5 -2.796875 C 6.5 -2.316406 6.453125 -1.894531 6.359375 -1.53125 C 6.265625 -1.175781 6.113281 -0.878906 5.90625 -0.640625 C 5.695312 -0.398438 5.425781 -0.21875 5.09375 -0.09375 C 4.769531 0.03125 4.375 0.09375 3.90625 0.09375 C 3.457031 0.09375 3.066406 0.0507812 2.734375 -0.03125 C 2.410156 -0.125 2.132812 -0.269531 1.90625 -0.46875 C 1.6875 -0.675781 1.523438 -0.941406 1.421875 -1.265625 C 1.316406 -1.585938 1.265625 -1.984375 1.265625 -2.453125 L 1.265625 -4.828125 C 1.265625 -5.273438 1.253906 -5.617188 1.234375 -5.859375 C 1.210938 -6.097656 1.148438 -6.273438 1.046875 -6.390625 C 0.972656 -6.460938 0.875 -6.515625 0.75 -6.546875 C 0.625 -6.578125 0.460938 -6.59375 0.265625 -6.59375 L 0.265625 -6.9375 L 3.328125 -6.9375 L 3.328125 -6.59375 C 3.128906 -6.59375 2.960938 -6.578125 2.828125 -6.546875 C 2.703125 -6.523438 2.601562 -6.46875 2.53125 -6.375 C 2.445312 -6.257812 2.394531 -6.082031 2.375 -5.84375 C 2.351562 -5.613281 2.34375 -5.273438 2.34375 -4.828125 L 2.34375 -2.390625 C 2.34375 -2.078125 2.375 -1.800781 2.4375 -1.5625 C 2.5 -1.332031 2.601562 -1.132812 2.75 -0.96875 C 2.894531 -0.800781 3.082031 -0.675781 3.3125 -0.59375 C 3.539062 -0.507812 3.820312 -0.46875 4.15625 -0.46875 C 4.757812 -0.46875 5.207031 -0.632812 5.5 -0.96875 C 5.800781 -1.300781 5.953125 -1.789062 5.953125 -2.4375 L 5.953125 -4.609375 C 5.953125 -5.140625 5.929688 -5.539062 5.890625 -5.8125 C 5.847656 -6.09375 5.769531 -6.289062 5.65625 -6.40625 C 5.570312 -6.488281 5.46875 -6.539062 5.34375 -6.5625 C 5.21875 -6.582031 5.0625 -6.59375 4.875 -6.59375 L 4.875 -6.9375 L 7.484375 -6.9375 L 7.484375 -6.59375 C 7.296875 -6.59375 7.140625 -6.578125 7.015625 -6.546875 C 6.890625 -6.515625 6.789062 -6.445312 6.71875 -6.34375 C 6.632812 -6.21875 6.578125 -6.019531 6.546875 -5.75 C 6.515625 -5.488281 6.5 -5.109375 6.5 -4.609375 Z M 6.5 -2.796875 "/></g></g></g><g fill="#13488e" fill-opacity="1"><g transform="translate(234.132301, 237.833363)"><g><path d="M 2.34375 -3.8125 C 2.664062 -3.8125 2.9375 -3.828125 3.15625 -3.859375 C 3.375 -3.898438 3.546875 -3.960938 3.671875 -4.046875 C 3.804688 -4.128906 3.898438 -4.238281 3.953125 -4.375 C 4.015625 -4.507812 4.046875 -4.664062 4.046875 -4.84375 L 4.359375 -4.84375 L 4.359375 -2.390625 L 4.046875 -2.390625 C 4.046875 -2.566406 4.019531 -2.71875 3.96875 -2.84375 C 3.914062 -2.976562 3.820312 -3.085938 3.6875 -3.171875 C 3.5625 -3.265625 3.390625 -3.332031 3.171875 -3.375 C 2.953125 -3.425781 2.675781 -3.453125 2.34375 -3.453125 L 2.34375 -1.40625 C 2.34375 -1.207031 2.363281 -1.046875 2.40625 -0.921875 C 2.457031 -0.796875 2.539062 -0.691406 2.65625 -0.609375 C 2.769531 -0.523438 2.921875 -0.46875 3.109375 -0.4375 C 3.304688 -0.40625 3.546875 -0.390625 3.828125 -0.390625 C 4.148438 -0.390625 4.421875 -0.410156 4.640625 -0.453125 C 4.867188 -0.492188 5.054688 -0.566406 5.203125 -0.671875 C 5.347656 -0.785156 5.46875 -0.929688 5.5625 -1.109375 C 5.65625 -1.285156 5.726562 -1.503906 5.78125 -1.765625 L 6.125 -1.765625 L 6 0 L 0.40625 0 L 0.40625 -0.34375 C 0.613281 -0.34375 0.78125 -0.359375 0.90625 -0.390625 C 1.039062 -0.421875 1.144531 -0.472656 1.21875 -0.546875 C 1.289062 -0.617188 1.335938 -0.71875 1.359375 -0.84375 C 1.378906 -0.976562 1.390625 -1.15625 1.390625 -1.375 L 1.390625 -5.5625 C 1.390625 -5.769531 1.378906 -5.9375 1.359375 -6.0625 C 1.335938 -6.195312 1.296875 -6.300781 1.234375 -6.375 C 1.171875 -6.445312 1.078125 -6.492188 0.953125 -6.515625 C 0.835938 -6.546875 0.6875 -6.570312 0.5 -6.59375 L 0.5 -6.9375 L 5.703125 -6.9375 L 5.78125 -5.34375 L 5.46875 -5.34375 C 5.425781 -5.582031 5.363281 -5.78125 5.28125 -5.9375 C 5.207031 -6.09375 5.097656 -6.210938 4.953125 -6.296875 C 4.816406 -6.390625 4.640625 -6.453125 4.421875 -6.484375 C 4.203125 -6.523438 3.941406 -6.546875 3.640625 -6.546875 L 2.5 -6.546875 C 2.394531 -6.546875 2.34375 -6.492188 2.34375 -6.390625 Z M 2.34375 -3.8125 "/></g></g></g></svg>